<svg xmlns="http://www.w3.org/2000/svg" viewBox="-10 -12 72 72" id="css"><path fill="#42a5f5" d="M45 47a1 1 0 0 1-1 1H8a1 1 0 0 1-1-1v-4h2v3h34V12h-5a3 3 0 0 1-3-3V2H9v19H7V1a1 1 0 0 1 1-1c30.48 0 28.19-.12 28.64.25.13.1 8.19 10.16 8.27 10.34 0 3.76.09-13.54.09 36.41Z"></path><path fill="#42a5f5" d="M29 31a1 1 0 1 1 1-1 1 1 0 0 0 1 1c1.91 0 1-4-2-4a3 3 0 0 0 0 6 1 1 0 1 1-1 1 1 1 0 0 0-1-1c-1.91 0-1 4 2 4a3 3 0 0 0 0-6zm-8-2a1 1 0 0 1 1 1 1 1 0 0 0 1 1c1.91 0 1-4-2-4a3 3 0 0 0 0 6 1 1 0 1 1-1 1 1 1 0 0 0-1-1c-1.91 0-1 4 2 4a3 3 0 0 0 0-6 1 1 0 0 1 0-2zm-6.52 5.34A2 2 0 0 1 11 33v-2a2 2 0 0 1 3.43-1.4 1 1 0 1 0 1.4-1.43A4 4 0 0 0 9 31v2a4 4 0 0 0 7 2.66 1 1 0 0 0-1.52-1.32z"></path><path fill="#424242" d="M37 41H4a1 1 0 0 1-1-1V24a1 1 0 0 1 1-1h33a1 1 0 0 1 1 1v16a1 1 0 0 1-1 1ZM5 39h31V25H5Z"></path><path fill="#42a5f5" d="M20 15a1 1 0 0 1-2 0 1 1 0 0 1 2 0zm4 0a1 1 0 0 1-2 0 1 1 0 0 1 2 0zm4 0a1 1 0 0 1-2 0 1 1 0 0 1 2 0z"></path><path fill="#424242" d="M17 20h-1a2 2 0 0 1-2-2c0-1.7.11-1.48-.71-2.29a1 1 0 0 1 0-1.42c.83-.82.71-.59.71-2.29a2 2 0 0 1 2-2h1a1 1 0 0 1 0 2h-1c0 1.62.05 2.13-.62 3 .71.92.62 1.68.62 3h1a1 1 0 0 1 0 2zm13 0h-1a1 1 0 0 1 0-2h1c0-1.62-.05-2.13.62-3-.71-.92-.62-1.68-.62-3h-1a1 1 0 0 1 0-2h1a2 2 0 0 1 2 2c0 1.7-.11 1.48.71 2.29a1 1 0 0 1 0 1.42c-.8.8-.71.55-.71 2.29a2 2 0 0 1-2 2z"></path></svg>