<svg xmlns="http://www.w3.org/2000/svg" viewBox="-8 -8 80 80" id="html-file"><path fill="none" d="M0 0h64v64H0z"></path><path fill="#bc4226" d="m13 56-5.01-5H13v5zM51 56l5.01-5H51v5z"></path><path fill="#b2b2b2" d="M51 13h-7.99V5.01L51 13z"></path><path fill="#f1f1f1" d="M43 5H14.59A1.59 1.59 0 0 0 13 6.59v51a1.6 1.6 0 0 0 1.59 1.6h34.82A1.6 1.6 0 0 0 51 57.54V13h-8Z"></path><path fill="none" stroke="#231f20" stroke-linecap="round" stroke-linejoin="round" stroke-width="2" d="M43 5H14.59A1.59 1.59 0 0 0 13 6.59v51a1.6 1.6 0 0 0 1.59 1.6h34.82A1.6 1.6 0 0 0 51 57.54V13h-8Z"></path><path fill="none" stroke="#231f20" stroke-linecap="round" stroke-linejoin="round" stroke-width="2" d="M51 13h-7.99V5.01L51 13zM13 56l-5.01-5H13v5zM51 56l5.01-5H51v5z"></path><path fill="#e86741" d="M9 33h46a1 1 0 0 1 1 1v17H8V34a1 1 0 0 1 1-1Z"></path><path fill="none" stroke="#231f20" stroke-linecap="round" stroke-linejoin="round" stroke-width="2" d="M9 33h46a1 1 0 0 1 1 1v17h0H8h0V34a1 1 0 0 1 1-1Z"></path><path fill="#fff" d="M24.14 37.82V46h-2v-3.41h-3.1V46h-2v-8.18h2V41h3.1v-3.18zm7.24 0v1.58h-2.22V46h-2v-6.6H25v-1.58zm10.02.06V46h-2v-5.08L37.67 46H36l-1.77-5.09V46h-2v-8.12h2.41l2.21 5.66L39 37.88zm3.34 6.61h2.64V46h-4.61v-8.18h2z"></path><path fill="#e86741" d="M28 24.19a2.76 2.76 0 0 1 .17.35.84.84 0 0 1 .08.33.74.74 0 0 1-.27.59 1 1 0 0 1-.7.24 1.5 1.5 0 0 1-.56-.1c-.32-.22-.66-.47-1-.76L24.59 24l-1.48-1.1-1.33-1a1 1 0 0 1-.35-.68 1 1 0 0 1 .47-.79l.46-.35.87-.68 1.06-.83 1.06-.84.86-.67a4.69 4.69 0 0 1 .47-.34 1.48 1.48 0 0 1 .55-.13 1 1 0 0 1 .71.25.83.83 0 0 1 .26.6 1 1 0 0 1-.24.68c-.24.19-.54.44-.91.72l-1.14.87-1.05.82-.85.67 4 3zm8-.02 4-3-.85-.67-1-.82-1.15-.82c-.37-.28-.67-.53-.91-.72a1 1 0 0 1-.24-.68.83.83 0 0 1 .26-.6 1 1 0 0 1 .71-.25 1.48 1.48 0 0 1 .55.13 4.69 4.69 0 0 1 .47.34l.86.67 1.06.84 1.06.83.87.68.46.35a1 1 0 0 1 .47.79 1 1 0 0 1-.35.68l-1.33 1L39.41 24l-1.13.85c-.36.29-.7.54-1 .76a1.5 1.5 0 0 1-.56.1 1 1 0 0 1-.7-.24.74.74 0 0 1-.27-.59.84.84 0 0 1 .08-.33 2.76 2.76 0 0 1 .17-.35z"></path></svg>